<?xml version="1.0" encoding="iso-8859-1"?>
<!-- Generator: Adobe Illustrator 19.0.0, SVG Export Plug-In . SVG Version: 6.00 Build 0)  -->
<svg version="1.1" id="Capa_1" xmlns="http://www.w3.org/2000/svg" xmlns:xlink="http://www.w3.org/1999/xlink" x="0px" y="0px"
	 viewBox="0 0 480 480" style="enable-background:new 0 0 480 480;" xml:space="preserve">
<path style="fill:#FFEB99;" d="M336,32H80v440h320V32H336z M336,56c8.837,0,16,7.163,16,16s-7.163,16-16,16s-16-7.163-16-16
	S327.163,56,336,56z M272,56c8.837,0,16,7.163,16,16s-7.163,16-16,16s-16-7.163-16-16S263.163,56,272,56z M208,56
	c8.837,0,16,7.163,16,16s-7.163,16-16,16s-16-7.163-16-16S199.163,56,208,56z M144,56c8.837,0,16,7.163,16,16s-7.163,16-16,16
	s-16-7.163-16-16C128.026,63.174,135.174,56.026,144,56z"/>
<g>
	<circle style="fill:#3E3D42;" cx="144" cy="72" r="16"/>
	<circle style="fill:#3E3D42;" cx="208" cy="72" r="16"/>
	<circle style="fill:#3E3D42;" cx="272" cy="72" r="16"/>
	<circle style="fill:#3E3D42;" cx="336" cy="72" r="16"/>
</g>
<path d="M400,24h-56V0h-16v24h-48V0h-16v24h-48V0h-16v24h-48V0h-16v24H80c-4.418,0-8,3.582-8,8v440c0,4.418,3.582,8,8,8h320
	c4.418,0,8-3.582,8-8V32C408,27.582,404.418,24,400,24z M392,464H88V40h48v9.472c-12.497,4.418-19.046,18.131-14.627,30.627
	c4.418,12.497,18.131,19.046,30.627,14.627c12.497-4.418,19.046-18.131,14.627-30.627c-2.416-6.835-7.793-12.211-14.627-14.627V40
	h48v9.472c-12.497,4.418-19.046,18.131-14.627,30.627c4.418,12.497,18.131,19.046,30.627,14.627
	c12.497-4.418,19.046-18.131,14.627-30.627c-2.416-6.835-7.793-12.211-14.627-14.627V40h48v9.472
	c-12.497,4.418-19.046,18.131-14.627,30.627S267.503,99.145,280,94.727c12.497-4.418,19.046-18.131,14.627-30.627
	c-2.416-6.835-7.793-12.211-14.627-14.627V40h48v9.472c-12.497,4.418-19.046,18.131-14.627,30.627S331.503,99.145,344,94.727
	c12.497-4.418,19.046-18.131,14.627-30.627c-2.416-6.835-7.793-12.211-14.627-14.627V40h48V464z M152,72c0,4.418-3.582,8-8,8
	s-8-3.582-8-8s3.582-8,8-8S152,67.582,152,72z M216,72c0,4.418-3.582,8-8,8s-8-3.582-8-8s3.582-8,8-8S216,67.582,216,72z M280,72
	c0,4.418-3.582,8-8,8s-8-3.582-8-8s3.582-8,8-8S280,67.582,280,72z M344,72c0,4.418-3.582,8-8,8s-8-3.582-8-8s3.582-8,8-8
	S344,67.582,344,72z"/>
<path d="M120,400h240v16H120V400z"/>
<path d="M120,336h240v16H120V336z"/>
<path d="M120,272h240v16H120V272z"/>
<path d="M120,208h240v16H120V208z"/>
<path d="M120,144h240v16H120V144z"/>
<g>
</g>
<g>
</g>
<g>
</g>
<g>
</g>
<g>
</g>
<g>
</g>
<g>
</g>
<g>
</g>
<g>
</g>
<g>
</g>
<g>
</g>
<g>
</g>
<g>
</g>
<g>
</g>
<g>
</g>
</svg>
