<?xml version="1.0" encoding="utf-8"?>
<!-- Generator: Adobe Illustrator 24.1.2, SVG Export Plug-In . SVG Version: 6.00 Build 0)  -->
<svg version="1.1" id="Layer_1" xmlns="http://www.w3.org/2000/svg" xmlns:xlink="http://www.w3.org/1999/xlink" x="0px" y="0px"
	 viewBox="0 0 566.93 566.93" style="enable-background:new 0 0 566.93 566.93;" xml:space="preserve">
<style type="text/css">
	.st0{fill:#ED9C21;}
	.st1{fill:#FFFFFF;}
	.st2{fill:none;stroke:#ED9C21;stroke-width:3;stroke-miterlimit:10;}
	.st3{fill:none;}
</style>
<polygon class="st0" points="519.02,419.46 519.02,147.47 283.46,11.47 47.91,147.47 47.91,419.46 283.46,555.46 "/>
<g>
	<path class="st1" d="M292.31,197.66v141.62h-40.36V238.02l-26.2,101.26h-27.6l-27.23-101.26v101.26h-32.58V197.66h56.8l20.54,75.22
		l19.61-75.22H292.31z"/>
</g>
<g>
	<path class="st1" d="M415.67,339.44h-35.38l-38.79-62.57c-4.98-8.02-10-17.77-15.06-29.25c2.28,9.13,3.42,16.88,3.42,23.24v68.58
		h-35.28V197.82h41.09l33,51.87c6.57,10.31,11.55,19.37,14.94,27.19c-2.21-12.1-3.32-24.49-3.32-37.14v-41.92h35.38V339.44z"/>
</g>
<line class="st2" x1="293.33" y1="197.78" x2="293.33" y2="339.44"/>
<line class="st3" x1="288.24" y1="15.61" x2="288.24" y2="632.21"/>
<g>
</g>
<g>
</g>
<g>
</g>
<g>
</g>
<g>
</g>
<g>
</g>
</svg>
