<svg id="Layer_1" data-name="Layer 1" xmlns="http://www.w3.org/2000/svg" viewBox="0 0 288 288"><defs><style>.cls-1{fill:#fff;}.cls-2,.cls-3{fill:#231f20;}.cls-3{stroke:#231f20;stroke-linecap:round;stroke-linejoin:round;stroke-width:4px;}</style></defs><rect class="cls-1" x="2" y="2" width="284" height="284" rx="52"/><path class="cls-2" d="M234,4a50.06,50.06,0,0,1,50,50V234a50.06,50.06,0,0,1-50,50H54A50.06,50.06,0,0,1,4,234V54A50.06,50.06,0,0,1,54,4H234m0-4H54A54,54,0,0,0,0,54V234a54,54,0,0,0,54,54H234a54,54,0,0,0,54-54V54A54,54,0,0,0,234,0Z"/><ellipse class="cls-3" cx="142.22" cy="67.9" rx="102.21" ry="30.24"/><ellipse class="cls-3" cx="142.22" cy="96.01" rx="102.21" ry="30.24"/><rect class="cls-3" x="40.01" y="68.54" width="204.43" height="27.04"/><path class="cls-3" d="M244.31,129c-2.68,16-47.36,28.72-102.09,28.72S42.82,145,40.14,129a8.59,8.59,0,0,0-.13,1.52c0,.21,0,.42.05.64H40v27h0c0,.14,0,.28,0,.43,0,16.7,45.76,30.24,102.21,30.24s102.22-13.54,102.22-30.24c0-.15,0-.29,0-.43h0v-27h-.06c0-.22.06-.43.06-.64A9.64,9.64,0,0,0,244.31,129Z"/><path class="cls-3" d="M244.31,192.71c-2.68,16-47.36,28.72-102.09,28.72S42.82,208.7,40.14,192.71a8.59,8.59,0,0,0-.13,1.52c0,.22,0,.43.05.64H40v27h0c0,.15,0,.29,0,.43,0,16.7,45.76,30.24,102.21,30.24S244.44,239,244.44,222.34c0-.14,0-.28,0-.43h0v-27h-.06c0-.21.06-.42.06-.64A9.64,9.64,0,0,0,244.31,192.71Z"/></svg>