<svg id="Layer_1" data-name="Layer 1" xmlns="http://www.w3.org/2000/svg" viewBox="0 0 288 288"><defs><style>.cls-1{fill:#fff;}.cls-2{fill:#231f20;}.cls-3{fill:#e34e26;}.cls-4{fill:#f16629;}.cls-5{fill:#ebebeb;}</style></defs><rect class="cls-1" x="4.65" y="5.74" width="280" height="280" rx="50"/><path class="cls-2" d="M234.65,9.74a46,46,0,0,1,46,46v180a46.05,46.05,0,0,1-46,46h-180a46.06,46.06,0,0,1-46-46v-180a46.05,46.05,0,0,1,46-46h180m0-8h-180a54,54,0,0,0-54,54v180a54,54,0,0,0,54,54h180a54,54,0,0,0,54-54v-180a54,54,0,0,0-54-54Z"/><polygon class="cls-3" points="146.95 41.89 37.73 41.89 55.34 231.72 146.95 257 146.95 41.89"/><polygon class="cls-3" points="146.78 41.89 256 41.89 238.4 231.72 146.78 257 146.78 41.89"/><polygon class="cls-4" points="146.78 64.5 232.64 64.5 218.8 214.42 146.78 234.39 146.78 64.5"/><polyline class="cls-1" points="146.78 76.61 213.17 76.61 211.4 94.39 146.78 94.39"/><polyline class="cls-5" points="146.78 94.39 82.05 94.39 80.39 76.61 146.78 76.61"/><polyline class="cls-5" points="86.86 145.71 80.66 79.61 98.36 77.95 104.56 144.05"/><polyline class="cls-5" points="146.78 145.71 87 145.71 85.47 127.93 146.78 127.93"/><polyline class="cls-1" points="146.78 127.93 207.89 127.93 206.25 145.71 146.78 145.71"/><polyline class="cls-1" points="184.37 188.69 189.97 128.51 207.67 130.16 202.07 190.33"/><polyline class="cls-5" points="90.87 190.12 87.82 157.65 105.52 155.99 108.57 188.46"/><polyline class="cls-1" points="146.78 187.49 195.53 173.91 202.07 190.33 146.8 205.94"/><polyline class="cls-5" points="146.72 187.48 97.38 173.72 90.82 190.14 146.76 205.94"/></svg>