<svg id="Layer_1" data-name="Layer 1" xmlns="http://www.w3.org/2000/svg" viewBox="0 0 288 288"><defs><style>.cls-1{fill:#fff;}.cls-2{fill:#231f20;}.cls-3{fill:#bcbec0;}.cls-4{fill:none;stroke:#231f20;stroke-linecap:round;stroke-linejoin:round;stroke-width:8px;}.cls-5{fill:#39b54a;}</style></defs><rect class="cls-1" x="4" y="4" width="280" height="280" rx="50"/><path class="cls-2" d="M234,8a46.06,46.06,0,0,1,46,46V234a46.06,46.06,0,0,1-46,46H54A46.06,46.06,0,0,1,8,234V54A46.06,46.06,0,0,1,54,8H234m0-8H54A54,54,0,0,0,0,54V234a54,54,0,0,0,54,54H234a54,54,0,0,0,54-54V54A54,54,0,0,0,234,0Z"/><rect class="cls-1" x="76.96" y="39.13" width="154.08" height="208.43" rx="9.29"/><path class="cls-2" d="M221.75,43.13A5.29,5.29,0,0,1,227,48.42V238.27a5.3,5.3,0,0,1-5.29,5.29H86.25A5.3,5.3,0,0,1,81,238.27V48.42a5.29,5.29,0,0,1,5.29-5.29h135.5m0-8H86.25A13.29,13.29,0,0,0,73,48.42V238.27a13.29,13.29,0,0,0,13.29,13.29h135.5A13.29,13.29,0,0,0,235,238.27V48.42a13.29,13.29,0,0,0-13.29-13.29Z"/><rect class="cls-3" x="56.96" y="59.13" width="154.08" height="208.43" rx="9.29"/><path class="cls-2" d="M201.75,63.13A5.29,5.29,0,0,1,207,68.42V258.27a5.3,5.3,0,0,1-5.29,5.29H66.25A5.3,5.3,0,0,1,61,258.27V68.42a5.29,5.29,0,0,1,5.29-5.29h135.5m0-8H66.25A13.29,13.29,0,0,0,53,68.42V258.27a13.29,13.29,0,0,0,13.29,13.29h135.5A13.29,13.29,0,0,0,215,258.27V68.42a13.29,13.29,0,0,0-13.29-13.29Z"/><line class="cls-4" x1="189.92" y1="133.07" x2="144.42" y2="133.07"/><line class="cls-4" x1="127.75" y1="132.49" x2="82.25" y2="132.49"/><path class="cls-2" d="M86,87.47l10.59,16V87.32A3.54,3.54,0,0,1,97.31,85a2.27,2.27,0,0,1,1.83-.79A2.34,2.34,0,0,1,101,85a3.48,3.48,0,0,1,.69,2.36v21.39q0,3.58-3,3.59a4,4,0,0,1-1.34-.22,3.47,3.47,0,0,1-1.11-.67,6.85,6.85,0,0,1-1-1.09l-.89-1.27L84.09,93.2v15.94a3.37,3.37,0,0,1-.73,2.36,2.56,2.56,0,0,1-3.73,0,3.47,3.47,0,0,1-.7-2.35v-21a5.92,5.92,0,0,1,.3-2.1A2.9,2.9,0,0,1,80.4,84.7a3.11,3.11,0,0,1,1.76-.53,3.06,3.06,0,0,1,1.27.24,3.18,3.18,0,0,1,.93.65,6.21,6.21,0,0,1,.81,1.06Z"/><path class="cls-2" d="M125.65,88.88H113.24v6.68h11.43a2.69,2.69,0,0,1,1.88.57,1.92,1.92,0,0,1,.62,1.49,2,2,0,0,1-.61,1.51,2.66,2.66,0,0,1-1.89.59H113.24v7.73h12.84a2.79,2.79,0,0,1,2,.61,2.08,2.08,0,0,1,.65,1.6,2.06,2.06,0,0,1-.65,1.57,2.84,2.84,0,0,1-2,.6h-15a3.47,3.47,0,0,1-2.58-.8,3.53,3.53,0,0,1-.79-2.57V88a4.52,4.52,0,0,1,.35-1.94,2.18,2.18,0,0,1,1.1-1.1,4.79,4.79,0,0,1,1.92-.34h14.55a2.89,2.89,0,0,1,2,.58,2,2,0,0,1,.64,1.54,2,2,0,0,1-.64,1.54A2.79,2.79,0,0,1,125.65,88.88Z"/><path class="cls-2" d="M152.33,107.55l-4.4-16.31-4.45,16.31c-.35,1.23-.62,2.12-.82,2.66a3.58,3.58,0,0,1-1.07,1.45,3.07,3.07,0,0,1-2,.64,3.37,3.37,0,0,1-1.68-.38,3,3,0,0,1-1.07-1.08,7,7,0,0,1-.67-1.65c-.17-.64-.33-1.23-.46-1.77L131.16,89.1a10.8,10.8,0,0,1-.41-2.43,2.38,2.38,0,0,1,.75-1.78,2.51,2.51,0,0,1,1.83-.72,2.08,2.08,0,0,1,2,1,10.9,10.9,0,0,1,.91,2.8l3.57,15.89,4-14.87a23.89,23.89,0,0,1,.79-2.59,3.75,3.75,0,0,1,1.15-1.54,3.3,3.3,0,0,1,2.17-.65,3.2,3.2,0,0,1,2.17.67,3.82,3.82,0,0,1,1.06,1.48c.2.53.47,1.41.8,2.63l4,14.87,3.56-15.89A19.8,19.8,0,0,1,160,86a3.18,3.18,0,0,1,.8-1.27,2.24,2.24,0,0,1,1.64-.55,2.58,2.58,0,0,1,1.83.71,2.39,2.39,0,0,1,.75,1.79,11.74,11.74,0,0,1-.41,2.43l-4.52,18.32c-.31,1.23-.57,2.14-.77,2.71a3.8,3.8,0,0,1-1,1.52,3,3,0,0,1-2.07.65,3.16,3.16,0,0,1-2-.63,3.42,3.42,0,0,1-1.05-1.42Q152.87,109.46,152.33,107.55Z"/><path class="cls-2" d="M189.39,103.67a8,8,0,0,1-1.28,4.43,8.36,8.36,0,0,1-3.72,3.08,13.92,13.92,0,0,1-5.8,1.12,13,13,0,0,1-6.65-1.53,8.85,8.85,0,0,1-3-2.92,6.66,6.66,0,0,1-1.16-3.55,2.41,2.41,0,0,1,2.47-2.43,2.08,2.08,0,0,1,1.47.55,4.46,4.46,0,0,1,1,1.66,11.48,11.48,0,0,0,1.12,2.17,4.66,4.66,0,0,0,1.7,1.44,6.39,6.39,0,0,0,2.88.56,6.5,6.5,0,0,0,4-1.14,3.43,3.43,0,0,0,1.53-2.85,3,3,0,0,0-.83-2.2,5.39,5.39,0,0,0-2.13-1.29c-.87-.29-2-.61-3.5-.94a26.16,26.16,0,0,1-4.91-1.61,7.89,7.89,0,0,1-3.13-2.5,6.53,6.53,0,0,1-1.16-4,6.79,6.79,0,0,1,1.22-4,7.74,7.74,0,0,1,3.55-2.69,14.56,14.56,0,0,1,5.45-.93,13.29,13.29,0,0,1,4.33.62,9.09,9.09,0,0,1,3,1.65,7,7,0,0,1,1.76,2.16,5,5,0,0,1,.56,2.21,2.56,2.56,0,0,1-.7,1.77,2.2,2.2,0,0,1-1.73.79,2,2,0,0,1-1.44-.47,6.54,6.54,0,0,1-1.07-1.55,6.9,6.9,0,0,0-1.78-2.4,5.18,5.18,0,0,0-3.34-.87,5.74,5.74,0,0,0-3.44.94,2.73,2.73,0,0,0-1.31,2.25,2.24,2.24,0,0,0,.45,1.41,3.56,3.56,0,0,0,1.22,1,8,8,0,0,0,1.58.67c.53.16,1.41.4,2.63.71a41.94,41.94,0,0,1,4.17,1.18,12.85,12.85,0,0,1,3.17,1.58,6.51,6.51,0,0,1,2,2.35A7.46,7.46,0,0,1,189.39,103.67Z"/><line class="cls-4" x1="127.75" y1="152.49" x2="82.25" y2="152.49"/><line class="cls-4" x1="127.75" y1="172.49" x2="82.25" y2="172.49"/><line class="cls-4" x1="127.75" y1="192.49" x2="82.25" y2="192.49"/><line class="cls-4" x1="127.75" y1="212.49" x2="82.25" y2="212.49"/><rect class="cls-5" x="144.81" y="147.03" width="44.69" height="65.76" rx="9.29"/><path class="cls-2" d="M180.21,151a5.29,5.29,0,0,1,5.29,5.28V203.5a5.29,5.29,0,0,1-5.29,5.29H154.1a5.29,5.29,0,0,1-5.29-5.29V156.31A5.29,5.29,0,0,1,154.1,151h26.11m0-8H154.1a13.29,13.29,0,0,0-13.29,13.28V203.5a13.29,13.29,0,0,0,13.29,13.29h26.11A13.29,13.29,0,0,0,193.5,203.5V156.31A13.29,13.29,0,0,0,180.21,143Z"/></svg>