<svg id="Layer_1" data-name="Layer 1" xmlns="http://www.w3.org/2000/svg" viewBox="0 0 288 288"><defs><style>.cls-1{fill:#fff;}.cls-2{fill:#231f20;}.cls-3{fill:#f04930;}.cls-4{fill:#fdb71e;}.cls-5{fill:#71bb44;}.cls-6{fill:#2ea2db;}</style></defs><rect class="cls-1" x="4.93" y="4" width="280" height="280" rx="50"/><path class="cls-2" d="M234.93,8a46.06,46.06,0,0,1,46,46V234a46.06,46.06,0,0,1-46,46h-180a46.06,46.06,0,0,1-46-46V54a46.06,46.06,0,0,1,46-46h180m0-8h-180a54,54,0,0,0-54,54V234a54,54,0,0,0,54,54h180a54,54,0,0,0,54-54V54a54,54,0,0,0-54-54Z"/><rect class="cls-3" x="34.5" y="34.5" width="104.5" height="104.5"/><rect class="cls-4" x="149" y="148.08" width="104.5" height="104.5"/><rect class="cls-5" x="149" y="34.5" width="104.5" height="104.5"/><rect class="cls-6" x="34.5" y="148.08" width="104.5" height="104.5"/></svg>