<svg id="Layer_1" data-name="Layer 1" xmlns="http://www.w3.org/2000/svg" viewBox="0 0 288 288"><defs><style>.cls-1{fill:#fff;}.cls-2{fill:#231f20;}.cls-3{fill:none;stroke:#231f20;stroke-linecap:round;stroke-linejoin:round;stroke-width:8px;}</style></defs><rect class="cls-1" x="4" y="4" width="280" height="280" rx="50"/><path class="cls-2" d="M234,8a46.06,46.06,0,0,1,46,46V234a46.06,46.06,0,0,1-46,46H54A46.06,46.06,0,0,1,8,234V54A46.06,46.06,0,0,1,54,8H234m0-8H54A54,54,0,0,0,0,54V234a54,54,0,0,0,54,54H234a54,54,0,0,0,54-54V54A54,54,0,0,0,234,0Z"/><line class="cls-3" x1="104" y1="36.31" x2="104" y2="251.69"/><line class="cls-3" x1="184" y1="36.31" x2="184" y2="251.69"/><line class="cls-3" x1="251.69" y1="184" x2="36.31" y2="184"/><line class="cls-3" x1="251.69" y1="104" x2="36.31" y2="104"/><circle class="cls-3" cx="144" cy="144" r="28.67"/><line class="cls-3" x1="120.61" y1="247.15" x2="164.07" y2="203.68"/><line class="cls-3" x1="164.07" y1="247.15" x2="120.61" y2="203.68"/><circle class="cls-3" cx="62.04" cy="64" r="28.67"/><line class="cls-3" x1="40.31" y1="165.73" x2="83.77" y2="122.27"/><line class="cls-3" x1="83.77" y1="165.73" x2="40.31" y2="122.27"/><line class="cls-3" x1="40.31" y1="244.38" x2="83.77" y2="200.91"/><line class="cls-3" x1="83.77" y1="244.38" x2="40.31" y2="200.91"/><line class="cls-3" x1="200.91" y1="247.15" x2="244.38" y2="203.68"/><line class="cls-3" x1="244.38" y1="247.15" x2="200.91" y2="203.68"/></svg>