<svg id="Layer_1" data-name="Layer 1" xmlns="http://www.w3.org/2000/svg" viewBox="0 0 288 288"><defs><style>.cls-1{fill:#fff;}.cls-2,.cls-3{fill:#231f20;}.cls-3,.cls-4{stroke:#231f20;stroke-linecap:round;stroke-linejoin:round;stroke-width:4px;}.cls-4{fill:none;}</style></defs><rect class="cls-1" x="4.91" y="4" width="280" height="280" rx="50"/><path class="cls-2" d="M234.91,8a46.06,46.06,0,0,1,46,46V234a46.06,46.06,0,0,1-46,46h-180a46.05,46.05,0,0,1-46-46V54a46.05,46.05,0,0,1,46-46h180m0-8h-180a54,54,0,0,0-54,54V234a54,54,0,0,0,54,54h180a54,54,0,0,0,54-54V54a54,54,0,0,0-54-54Z"/><polygon class="cls-3" points="59.45 99.37 59.45 71.02 84 56.84 108.56 71.02 108.56 99.37 128.08 110.55 128.08 62.65 84 37.19 39.92 62.65 39.92 110.55 59.45 99.37"/><path class="cls-3" d="M204,37,159.92,62.43v50.91L204,138.79l44.08-25.45V62.43Zm25.11,64.86L204.56,116,180,101.84V73.49l24.56-14.18,24.55,14.18Z"/><polyline class="cls-3" points="108.56 189.82 108.56 121.05 128.08 132.33 128.08 183.23"/><path class="cls-3" d="M84,153.42,39.92,178.87v50.91L84,255.23l44.08-25.45V178.87Zm25.11,64.87L84.56,232.46,60,218.29V189.93l24.56-14.18,24.55,14.18Z"/><line class="cls-4" x1="228.32" y1="203.95" x2="180.78" y2="204.27"/><polyline class="cls-3" points="228.39 189.38 247.39 179.18 204 153.1 159.92 178.55 159.92 229.45 204 254.9 247.56 229.26 228.56 218.18 204 232.35 179.44 218.18 179.44 189.82 204 175.65 228.18 189.6"/></svg>