<svg id="Layer_1" data-name="Layer 1" xmlns="http://www.w3.org/2000/svg" viewBox="0 0 288 288"><defs><style>.cls-1{fill:#fff;}.cls-2{fill:#231f20;}.cls-3{fill:#0c71b9;}.cls-4{fill:#27a8df;}.cls-5{fill:#ebebeb;}</style></defs><rect class="cls-1" x="4.93" y="4" width="280" height="280" rx="50"/><path class="cls-2" d="M234.93,8a46.06,46.06,0,0,1,46,46V234a46.06,46.06,0,0,1-46,46h-180a46.06,46.06,0,0,1-46-46V54a46.06,46.06,0,0,1,46-46h180m0-8h-180a54,54,0,0,0-54,54V234a54,54,0,0,0,54,54h180a54,54,0,0,0,54-54V54a54,54,0,0,0-54-54Z"/><polygon class="cls-3" points="144.08 36.44 34.86 36.44 52.47 226.27 144.08 251.56 144.08 36.44"/><polygon class="cls-3" points="143.92 36.44 253.14 36.44 235.53 226.27 143.92 251.56 143.92 36.44"/><polygon class="cls-4" points="143.92 59.06 229.77 59.06 215.93 208.98 143.92 228.94 143.92 59.06"/><polyline class="cls-1" points="143.92 71.17 210.31 71.17 208.53 88.94 143.92 88.94"/><polyline class="cls-5" points="143.92 88.94 79.18 88.94 77.53 71.17 143.92 71.17"/><polyline class="cls-1" points="143.92 96.44 177.11 82.27 208.53 88.94 143.92 116.11"/><polyline class="cls-1" points="143.92 122.49 205.02 122.49 203.38 140.27 143.92 140.27"/><polyline class="cls-1" points="181.5 183.24 187.1 123.07 204.8 124.72 199.2 184.89"/><polyline class="cls-5" points="88 184.68 84.95 152.21 102.65 150.55 105.7 183.02"/><polyline class="cls-1" points="143.92 182.05 192.66 168.46 199.2 184.89 143.94 200.5"/><polyline class="cls-5" points="143.86 182.03 94.51 168.28 87.95 184.7 143.9 200.5"/><polyline class="cls-5" points="82.19 121.12 143.92 96.44 143.92 116.11 84.09 139.78"/><polyline class="cls-5" points="143.92 140.27 84.13 140.27 82.61 122.49 143.92 122.49"/></svg>