<svg id="Layer_1" data-name="Layer 1" xmlns="http://www.w3.org/2000/svg" viewBox="0 0 288 288"><defs><style>.cls-1{fill:#fff;}.cls-2{fill:#231f20;}.cls-3{fill:#ed2224;}</style></defs><rect class="cls-1" x="4" y="4" width="280" height="280" rx="50"/><path class="cls-2" d="M234,8a46.06,46.06,0,0,1,46,46V234a46.06,46.06,0,0,1-46,46H54A46.06,46.06,0,0,1,8,234V54A46.06,46.06,0,0,1,54,8H234m0-8H54A54,54,0,0,0,0,54V234a54,54,0,0,0,54,54H234a54,54,0,0,0,54-54V54A54,54,0,0,0,234,0Z"/><polygon class="cls-3" points="78.45 222.58 144.01 222.58 144.01 222.6 144.07 222.58 157.34 253.04 222.93 253.04 144.01 73.02 78.45 222.58"/><path class="cls-3" d="M92.22,204.89a5.74,5.74,0,0,1,7-1.36,4.91,4.91,0,0,1,7.29,5.11,4.86,4.86,0,0,1,5.48-.54c1.71-3.47,3.45-6.92,5.35-10.29,2.26-4,10-2.57,9.32,2.52,0,.25-.08.49-.11.74a5.85,5.85,0,0,1,3.26,5.93c-.12.86-.27,1.71-.43,2.56a5.57,5.57,0,0,1,1.84.72c2.89-2.25,8.39-.05,8.1,4.05-.06,1-.17,1.91-.26,2.86,2.51-2.27,6.24-1,7.69,1.93a34.63,34.63,0,0,1,3.37-4.32c3.15-3.39,8.23-.53,8.54,3.53l0,.69c.26-.29.49-.6.76-.89,1.76-1.88,5-1.69,7-.16,2.69-1.1,6.21-.42,6.72,3a64.15,64.15,0,0,1,.23,14.05,25.12,25.12,0,0,1,3.1-2.37c2.61-1.66,6.69-.11,7.34,3,.25,1.2.43,2.39.57,3.58A4.65,4.65,0,0,1,186,243a42.07,42.07,0,0,1-.94,10h37.87L144,73,86.79,203.56A5.11,5.11,0,0,1,92.22,204.89Z"/><polygon class="cls-3" points="160.65 35.09 253.04 245.85 253.04 34.96 160.7 34.96 160.65 35.09"/><polygon class="cls-3" points="127.38 35.09 127.33 34.96 34.96 34.96 34.96 245.92 127.38 35.09"/></svg>