<svg id="Layer_1" data-name="Layer 1" xmlns="http://www.w3.org/2000/svg" viewBox="0 0 288 288"><defs><style>.cls-1{fill:#fff;}.cls-2,.cls-6{fill:#231f20;}.cls-3{fill:#808285;stroke-width:8px;}.cls-3,.cls-5,.cls-6{stroke:#231f20;}.cls-3,.cls-4,.cls-5,.cls-6{stroke-linecap:round;stroke-linejoin:round;}.cls-4{fill:#58595b;stroke:#58595b;}.cls-4,.cls-5,.cls-6,.cls-7,.cls-8{stroke-width:4px;}.cls-5{fill:none;}.cls-7{fill:#717ebd;stroke:#717ebd;}.cls-7,.cls-8{stroke-miterlimit:10;}.cls-8{fill:#7f3f98;stroke:#7f3f98;}</style></defs><rect class="cls-1" x="4" y="3.27" width="280" height="280" rx="50"/><path class="cls-2" d="M234,7.27a46.05,46.05,0,0,1,46,46v180a46.06,46.06,0,0,1-46,46H54a46.06,46.06,0,0,1-46-46v-180a46.05,46.05,0,0,1,46-46H234m0-8H54a54,54,0,0,0-54,54v180a54,54,0,0,0,54,54H234a54,54,0,0,0,54-54v-180a54,54,0,0,0-54-54Z"/><path class="cls-2" d="M149,101.83a24.81,24.81,0,0,1,16.24-33.25c8.79-2.7,18.06-2,27.11-1.59a90.21,90.21,0,0,0,14.33-.18c4.26-.5,8.52-1.68,11.73-4.7,6.26-5.91,5.62-16.18,1.45-23.06-1.66-2.74-6-.23-4.32,2.53,3.13,5.15,4,13.32-1.23,17.49-3,2.4-7.25,2.82-11,3-5.05.24-10.09,0-15.13-.28-9-.39-18.33-.5-26.82,2.84a29.21,29.21,0,0,0-16.5,15.44,30.11,30.11,0,0,0-.2,24.27,2.51,2.51,0,0,0,3.42.9,2.56,2.56,0,0,0,.9-3.42Z"/><path class="cls-3" d="M202.5,91.44H86.78v0c-.43,0-.85,0-1.28,0C54.85,91.44,30,115,30,144s24.85,52.56,55.5,52.56a56.74,56.74,0,0,0,41-17.12h35.06a56.74,56.74,0,0,0,41,17.12C233.15,196.56,258,173,258,144S233.15,91.44,202.5,91.44Z"/><circle class="cls-4" cx="204" cy="144" r="37.67"/><line class="cls-5" x1="131.23" y1="149.77" x2="142.77" y2="138.23"/><line class="cls-5" x1="145.23" y1="149.77" x2="156.77" y2="138.23"/><rect class="cls-6" x="78.86" y="120.83" width="10.67" height="46.33"/><rect class="cls-6" x="78.86" y="120.83" width="10.67" height="46.33" transform="translate(-59.8 228.2) rotate(-90)"/><circle class="cls-7" cx="188" cy="144" r="5.83"/><circle class="cls-8" cx="204" cy="160" r="5.83"/><circle class="cls-7" cx="204" cy="128" r="5.83"/><circle class="cls-8" cx="220" cy="144" r="5.83"/></svg>