<svg id="Layer_1" data-name="Layer 1" xmlns="http://www.w3.org/2000/svg" viewBox="0 0 288 288"><defs><style>.cls-1{fill:#fff;}.cls-2{fill:#231f20;}.cls-3{fill:#009444;stroke:#231f20;stroke-miterlimit:10;stroke-width:7px;}</style></defs><rect class="cls-1" x="3.5" y="3.5" width="281" height="281" rx="50.5"/><path class="cls-2" d="M234,7a47,47,0,0,1,47,47V234a47,47,0,0,1-47,47H54A47,47,0,0,1,7,234V54A47,47,0,0,1,54,7H234m0-7H54A54,54,0,0,0,0,54V234a54,54,0,0,0,54,54H234a54,54,0,0,0,54-54V54A54,54,0,0,0,234,0Z"/><polygon class="cls-3" points="157.79 121.86 200.82 97.02 243.86 121.86 243.86 171.55 200.82 196.4 157.79 171.55 157.79 121.86"/><polyline class="cls-3" points="200.82 196.4 200.82 146.71 243.86 121.86 200.82 146.71 157.79 121.86"/><polygon class="cls-3" points="157.79 121.82 200.82 96.98 243.86 121.82 243.86 171.51 200.82 196.36 157.79 171.51 157.79 121.82"/><polyline class="cls-3" points="200.82 196.36 200.82 146.67 243.86 121.82 200.82 146.67 157.79 121.82"/><polygon class="cls-3" points="101.9 154.26 144.93 129.42 187.96 154.26 187.96 203.95 144.93 228.8 101.9 203.95 101.9 154.26"/><polyline class="cls-3" points="144.93 228.8 144.93 179.11 187.96 154.26 144.93 179.11 101.9 154.26"/><polygon class="cls-3" points="101.9 154.22 144.93 129.38 187.96 154.22 187.96 203.91 144.93 228.76 101.9 203.91 101.9 154.22"/><polyline class="cls-3" points="144.93 228.76 144.93 179.07 187.96 154.22 144.93 179.07 101.9 154.22"/><polygon class="cls-3" points="44.14 187.51 87.18 162.66 130.21 187.51 130.21 237.2 87.18 262.04 44.14 237.2 44.14 187.51"/><polyline class="cls-3" points="87.18 262.04 87.18 212.35 130.21 187.51 87.18 212.35 44.14 187.51"/><polygon class="cls-3" points="44.14 118.42 87.18 93.58 130.21 118.42 130.21 168.11 87.18 192.96 44.14 168.11 44.14 118.42"/><polyline class="cls-3" points="87.18 192.96 87.18 143.27 130.21 118.42 87.18 143.27 44.14 118.42"/><polygon class="cls-3" points="44.14 50.8 87.18 25.96 130.21 50.8 130.21 100.49 87.18 125.34 44.14 100.49 44.14 50.8"/><polyline class="cls-3" points="87.18 125.34 87.18 75.65 130.21 50.8 87.18 75.65 44.14 50.8"/></svg>