<svg id="Layer_1" data-name="Layer 1" xmlns="http://www.w3.org/2000/svg" viewBox="0 0 288 288"><defs><style>.cls-1{fill:#fff;}.cls-2{fill:#231f20;}.cls-3,.cls-4{fill:#dd4926;}.cls-4,.cls-5{stroke:#dd4926;stroke-miterlimit:10;stroke-width:6px;}.cls-5{fill:none;}</style></defs><rect class="cls-1" x="3.09" y="4.24" width="280" height="280" rx="50"/><path class="cls-2" d="M233.09,8.24a46.05,46.05,0,0,1,46,46v180a46,46,0,0,1-46,46h-180a46.05,46.05,0,0,1-46-46v-180a46.06,46.06,0,0,1,46-46h180m0-8h-180a54,54,0,0,0-54,54v180a54,54,0,0,0,54,54h180a54,54,0,0,0,54-54v-180a54,54,0,0,0-54-54Z"/><circle class="cls-3" cx="144" cy="144" r="41.34"/><line class="cls-4" x1="183.94" y1="133.3" x2="76.96" y2="161.96"/><line class="cls-4" x1="135.07" y1="177.34" x2="161.64" y2="78.16"/><line class="cls-4" x1="190.55" y1="190.55" x2="119" y2="119"/><path class="cls-3" d="M144,33.29A110.71,110.71,0,1,0,254.71,144,110.71,110.71,0,0,0,144,33.29Zm71.64,106.38a14.77,14.77,0,0,1-6.06-1.3c.16,1.86.26,3.73.26,5.63A65.84,65.84,0,0,1,144,209.84c-1.71,0-3.39-.09-5.06-.21a14.86,14.86,0,1,1-23.41-6.25A65.84,65.84,0,0,1,90,106.29,14.86,14.86,0,1,1,106.29,90a65.83,65.83,0,0,1,97.34,26,14.86,14.86,0,1,1,12,23.6Z"/><circle class="cls-5" cx="125.06" cy="214.68" r="14.86"/><circle class="cls-5" cx="216.47" cy="124.58" r="14.86"/><circle class="cls-5" cx="91.5" cy="91.5" r="14.86"/></svg>