<svg id="Layer_1" data-name="Layer 1" xmlns="http://www.w3.org/2000/svg" viewBox="0 0 288 288"><defs><style>.cls-1{fill:#fff;}.cls-2{fill:#231f20;}.cls-3{fill:none;stroke-width:10px;}.cls-3,.cls-4{stroke:#6fcff0;stroke-miterlimit:10;}.cls-4{fill:#6fcff0;stroke-width:2px;}</style></defs><rect class="cls-1" x="4" y="4" width="280" height="280" rx="50"/><path class="cls-2" d="M234,8a46.06,46.06,0,0,1,46,46V234a46.06,46.06,0,0,1-46,46H54A46.06,46.06,0,0,1,8,234V54A46.06,46.06,0,0,1,54,8H234m0-8H54A54,54,0,0,0,0,54V234a54,54,0,0,0,54,54H234a54,54,0,0,0,54-54V54A54,54,0,0,0,234,0Z"/><ellipse class="cls-3" cx="144" cy="144" rx="122.42" ry="31.8"/><ellipse class="cls-3" cx="144" cy="144" rx="122.42" ry="31.8" transform="translate(-52.71 196.71) rotate(-60)"/><ellipse class="cls-3" cx="144" cy="144" rx="31.8" ry="122.42" transform="translate(-52.71 91.29) rotate(-30)"/><circle class="cls-4" cx="144" cy="144" r="11.13"/></svg>